<?xml version="1.0" encoding="utf-8"?>

<!DOCTYPE svg PUBLIC "-//W3C//DTD SVG 1.1//EN" "http://www.w3.org/Graphics/SVG/1.1/DTD/svg11.dtd">
<!-- Uploaded to: SVG Repo, www.svgrepo.com, Generator: SVG Repo Mixer Tools -->
<svg height="800px" width="800px" version="1.1" id="_x32_" xmlns="http://www.w3.org/2000/svg" xmlns:xlink="http://www.w3.org/1999/xlink" 
	 viewBox="0 0 512 512"  xml:space="preserve">
<style type="text/css">
	.st0{fill:#000000;}
</style>
<g>
	<path class="st0" d="M415.121,0H149.187c-20.472,0-37.074,16.602-37.074,37.075V156.6c0,7.576-3.247,14.795-8.915,19.821
		L68.71,206.992c-5.668,5.018-8.916,12.236-8.916,19.812v46.32c0,2.927,2.376,5.302,5.292,5.302h13.457c4.09,0,7.41,3.32,7.41,7.412
		v40.193c0,4.21-1.669,8.255-4.65,11.235l-16.858,16.85c-2.972,2.981-4.65,7.026-4.65,11.246v109.563
		c0,20.473,16.601,37.075,37.074,37.075h318.252c20.482,0,37.084-16.602,37.084-37.075V37.075C452.205,16.602,435.603,0,415.121,0z
		 M173.779,136.412h-29.902V50.448h29.902V136.412z M221.989,136.412h-29.902V50.448h29.902V136.412z M270.198,136.412h-29.902
		V22.426h29.902V136.412z M318.408,136.412h-29.892V50.448h29.892V136.412z M366.618,136.412h-29.893V22.426h29.893V136.412z
		 M414.828,136.412h-29.892V50.448h29.892V136.412z"/>
</g>
</svg>