<?xml version="1.0" encoding="iso-8859-1"?>
<!-- Uploaded to: SVG Repo, www.svgrepo.com, Generator: SVG Repo Mixer Tools -->
<svg fill="#000000" height="800px" width="800px" version="1.1" id="Layer_1" xmlns="http://www.w3.org/2000/svg" xmlns:xlink="http://www.w3.org/1999/xlink" 
	 viewBox="0 0 511.999 511.999" xml:space="preserve">
<g>
	<g>
		<path d="M421.277,99.534H285.24V63.918c0-7.656-6.208-13.863-13.863-13.863H142.885c-7.655,0-13.863,6.206-13.863,13.863v1.421
			H51.669c-3.437,0-6.75,1.277-9.299,3.581L4.564,103.115C1.658,105.743,0,109.479,0,113.396c0,3.918,1.658,7.654,4.564,10.282
			l37.805,34.194c2.549,2.305,5.862,3.581,9.299,3.581h77.354v1.421c0,7.656,6.208,13.863,13.863,13.863h128.493
			c7.655,0,13.863-6.206,13.863-13.863v-35.615h136.037c34.738,0,62.997,28.26,62.997,62.997s-28.26,62.996-62.997,62.996H380.78
			c-7.655,0-13.863,6.206-13.863,13.863c0,7.656,6.208,13.863,13.863,13.863h40.496c50.025,0,90.723-40.698,90.723-90.723
			C512,140.232,471.301,99.534,421.277,99.534z M129.021,133.727H57.007l-22.48-20.331l22.48-20.332h72.014V133.727z
			 M257.515,149.011H156.748v-1.421V79.201v-1.421h100.768V149.011z"/>
	</g>
</g>
<g>
	<g>
		<path d="M348.353,264.399c-0.18-0.873-0.444-1.747-0.79-2.592c-0.347-0.832-0.776-1.636-1.275-2.384
			c-0.513-0.762-1.095-1.469-1.733-2.107s-1.345-1.22-2.109-1.733c-0.749-0.499-1.551-0.929-2.384-1.275
			c-0.844-0.347-1.719-0.61-2.592-0.79c-1.788-0.36-3.632-0.36-5.42,0c-0.887,0.18-1.761,0.444-2.591,0.79
			c-0.846,0.347-1.65,0.776-2.398,1.275c-0.762,0.513-1.469,1.095-2.107,1.733s-1.221,1.345-1.719,2.107
			c-0.499,0.749-0.929,1.553-1.275,2.384c-0.347,0.846-0.61,1.719-0.79,2.592c-0.18,0.901-0.277,1.816-0.277,2.717
			c0,0.901,0.097,1.816,0.277,2.703s0.444,1.761,0.79,2.592c0.347,0.846,0.776,1.65,1.275,2.398
			c0.498,0.762,1.081,1.469,1.719,2.107s1.345,1.22,2.107,1.719c0.749,0.499,1.553,0.929,2.398,1.275
			c0.832,0.347,1.704,0.61,2.591,0.79c0.889,0.18,1.804,0.277,2.703,0.277c0.901,0,1.817-0.097,2.717-0.277
			c0.873-0.18,1.748-0.444,2.592-0.79c0.833-0.347,1.636-0.776,2.384-1.275c0.764-0.499,1.471-1.081,2.109-1.719
			c0.638-0.638,1.22-1.345,1.733-2.107c0.499-0.749,0.929-1.553,1.275-2.398c0.347-0.832,0.61-1.705,0.79-2.592
			c0.18-0.887,0.262-1.802,0.262-2.703S348.532,265.3,348.353,264.399z"/>
	</g>
</g>
<g>
	<g>
		<path d="M438.015,388.32l-37.805-34.194c-2.549-2.305-5.863-3.581-9.299-3.581h-77.352v-1.421c0-7.656-6.208-13.863-13.863-13.863
			H171.202c-7.655,0-13.863,6.206-13.863,13.863v35.615h-21.606c-28.607,0-51.881-23.274-51.881-51.88
			c0-28.607,23.274-51.881,51.881-51.881h156.12c7.655,0,13.863-6.206,13.863-13.863s-6.208-13.863-13.863-13.863h-156.12
			c-43.895,0-79.606,35.712-79.606,79.606s35.712,79.605,79.606,79.605h21.606v35.616c0,7.656,6.208,13.863,13.863,13.863h128.494
			c7.655,0,13.863-6.206,13.863-13.863v-1.421h77.352c3.437,0,6.75-1.277,9.299-3.581l37.805-34.195
			c2.906-2.628,4.564-6.363,4.564-10.282C442.579,394.683,440.921,390.949,438.015,388.32z M285.834,364.407v68.389v1.421H185.065
			v-71.23h100.769V364.407z M385.573,418.933h-72.014V378.27h72.012l22.48,20.331L385.573,418.933z"/>
	</g>
</g>
</svg>